<svg xmlns="http://www.w3.org/2000/svg" viewBox="0 0 200 240" width="200" height="240" role="img" aria-label="Escudo institucional provisional de la Escuela José Miguel Carrera Verdugo">
  <!--
    Escudo PLACEHOLDER. No corresponde a la identidad visual oficial del
    establecimiento (no se encontró marca oficial verificable). Reemplazar
    por el escudo real cuando esté disponible. Ver docs/ROADMAP.md.
  -->
  <defs>
    <clipPath id="shield-shape">
      <path d="M100 5 L190 40 V120 C190 175 150 215 100 235 C50 215 10 175 10 120 V40 Z" />
    </clipPath>
  </defs>

  <path
    d="M100 5 L190 40 V120 C190 175 150 215 100 235 C50 215 10 175 10 120 V40 Z"
    fill="#FAF7F0"
    stroke="#1E3A8A"
    stroke-width="5"
  />

  <g clip-path="url(#shield-shape)">
    <rect x="10" y="5" width="90" height="90" fill="#1E3A8A" />
    <rect x="10" y="95" width="90" height="140" fill="#FFFFFF" />
    <rect x="100" y="5" width="90" height="230" fill="#B91C1C" />
    <polygon points="30,20 40,45 20,45" fill="#FFFFFF" />
  </g>

  <path
    d="M100 5 L190 40 V120 C190 175 150 215 100 235 C50 215 10 175 10 120 V40 Z"
    fill="none"
    stroke="#1E3A8A"
    stroke-width="5"
  />

  <text
    x="100"
    y="128"
    text-anchor="middle"
    font-family="system-ui, sans-serif"
    font-size="14"
    font-weight="bold"
    fill="#1E3A8A"
  >
    J.M.C.V.
  </text>
</svg>
